<svg width="99" height="40" viewBox="0 0 99 40" fill="none" xmlns="http://www.w3.org/2000/svg">
<path d="M91.9864 0H6.54427C2.93326 0 0 2.95921 0 6.62729V33.3727C0 37.0295 2.93326 40 6.54427 40H98.5307V6.62729C98.5307 2.97046 95.5974 0 91.9864 0Z" fill="white"/>
<path d="M88.8865 22.256L80.0201 10.3179C79.9312 10.2053 79.809 10.1378 79.6646 10.1378H68.9759C68.8426 10.1378 68.7093 10.2053 68.6204 10.3179L59.7651 22.256C59.5429 22.5485 59.7651 22.9648 60.1095 22.9648H64.6983C65.0649 22.9648 65.2649 23.3812 65.0538 23.6737L61.365 28.6695C61.1539 28.962 61.365 29.3783 61.7206 29.3783H68.5537C68.6871 29.3783 68.8204 29.3108 68.9093 29.1983L72.9981 23.6624C73.2092 23.3699 72.9981 22.9536 72.6425 22.9536H70.5203C70.1315 22.9536 69.9093 22.5035 70.1426 22.1772L73.7758 17.3165C74.0091 17.0014 73.7869 16.5401 73.3981 16.5401H70.5315C70.1426 16.5401 69.9204 16.09 70.1537 15.7637L73.9758 10.6442C74.1647 10.3854 74.5425 10.3854 74.7425 10.6442L78.5313 15.7637C78.7646 16.0788 78.5313 16.5401 78.1535 16.5401H75.3202C74.9313 16.5401 74.698 16.9902 74.9425 17.3165L78.5424 22.1772C78.7757 22.4923 78.5424 22.9536 78.1646 22.9536H76.0758C75.7202 22.9536 75.5091 23.3699 75.7313 23.6624L79.8201 29.1983C79.909 29.3108 80.0312 29.3783 80.1757 29.3783H87.0088C87.3643 29.3783 87.5755 28.962 87.3532 28.6695L83.6644 23.6737C83.4533 23.3812 83.6644 22.9648 84.02 22.9648H88.6088C88.9754 22.9648 89.1754 22.5485 88.9643 22.256" fill="#002D74"/>
<path d="M9.8442 20.872C9.8442 20.7707 9.93309 20.692 10.022 20.692H12.233C12.333 20.692 12.4219 20.782 12.4219 20.872V25.8903C12.4219 26.8242 12.8663 27.398 13.8663 27.398C14.8663 27.398 15.2996 26.8242 15.2996 25.8903V20.872C15.2996 20.7707 15.3885 20.692 15.4774 20.692H17.6884C17.7884 20.692 17.8773 20.782 17.8773 20.872V25.744C17.8773 27.9381 16.7996 29.5134 13.8663 29.5134C10.9331 29.5134 9.8442 27.9381 9.8442 25.744V20.872ZM19.1106 29.1983V22.9761C19.1106 22.8748 19.1995 22.7961 19.2995 22.7961H21.3883C21.4883 22.7961 21.5772 22.8861 21.5772 22.9761V24.1125C21.8661 23.2236 22.855 22.6723 23.8994 22.6723C25.1216 22.6723 25.8993 23.3136 25.8993 25.0352V29.1983C25.8993 29.2996 25.8104 29.3896 25.7104 29.3896H23.6216C23.5216 29.3896 23.4327 29.2996 23.4327 29.1983V25.519C23.4327 24.9226 23.2327 24.5626 22.5216 24.5626C21.8105 24.5626 21.5661 24.6976 21.5661 24.9226V29.1983C21.5661 29.2996 21.4772 29.3896 21.3772 29.3896H19.2884C19.1884 29.3896 19.0995 29.2996 19.0995 29.1983M28.2548 20.1744C29.3215 20.1744 29.6215 20.2757 29.6215 21.1533C29.6215 22.0309 29.3215 22.1435 28.2548 22.1435C27.1882 22.1435 26.8771 22.0534 26.8771 21.1533C26.8771 20.2532 27.1882 20.1744 28.2548 20.1744ZM27.0437 22.9873C27.0437 22.8861 27.1326 22.8073 27.2215 22.8073H29.3104C29.4103 22.8073 29.4992 22.8973 29.4992 22.9873V29.2096C29.4992 29.3108 29.4103 29.4008 29.3104 29.4008H27.2215C27.1215 29.4008 27.0437 29.3108 27.0437 29.2096V22.9873ZM30.7214 22.9873C30.7214 22.8861 30.8103 22.8073 30.9103 22.8073H32.9991C33.0991 22.8073 33.1769 22.8973 33.1769 22.9873V24.1238C33.4658 23.2349 34.4435 22.6835 35.4102 22.6835C36.3768 22.6835 37.0324 23.0886 37.2768 24.045C37.6101 23.1899 38.5879 22.6835 39.5656 22.6835C40.7767 22.6835 41.5767 23.3249 41.5767 24.9226V29.2096C41.5767 29.3108 41.4878 29.4008 41.3878 29.4008H39.299C39.199 29.4008 39.1101 29.3108 39.1101 29.2096V25.5302C39.1101 24.9339 38.9101 24.5738 38.2657 24.5738C37.6212 24.5738 37.3657 24.7088 37.3657 24.9339V29.2096C37.3657 29.3108 37.2768 29.4008 37.1879 29.4008H35.0991C34.9991 29.4008 34.9102 29.3108 34.9102 29.2096V25.5302C34.9102 24.9339 34.7102 24.5738 34.0658 24.5738C33.4214 24.5738 33.1658 24.7088 33.1658 24.9339V29.2096C33.1658 29.3108 33.0769 29.4008 32.988 29.4008H30.8992C30.7992 29.4008 30.7103 29.3108 30.7103 29.2096V22.9873H30.7214ZM46.0655 22.6723C48.3432 22.6723 49.332 23.9437 49.332 25.9015C49.332 26.3291 49.3431 26.7342 48.8543 26.7342H45.0544C45.1766 27.5218 45.621 27.8031 47.0765 27.8031H48.9432C49.0654 27.8031 49.1654 27.9156 49.1432 28.0394L48.9432 29.0408C48.932 29.097 48.9098 29.142 48.8654 29.1533C48.2765 29.4008 47.4099 29.5021 46.3877 29.5021C43.71 29.5021 42.51 28.1969 42.51 26.0591C42.51 23.9212 43.6766 22.661 46.0543 22.661M47.0654 25.5077C47.0654 24.7426 46.8432 24.2475 46.0988 24.2475C45.4766 24.2475 45.121 24.5513 45.0322 25.5077H47.0654ZM52.5431 22.661C53.543 22.661 54.2097 23.1449 54.6097 23.955V20.737C54.6097 20.6357 54.6986 20.5457 54.7875 20.5457H56.8763C56.9763 20.5457 57.0652 20.6357 57.0652 20.737V29.187C57.0652 29.2883 56.9763 29.3783 56.8763 29.3783H54.7875C54.6875 29.3783 54.6097 29.2883 54.6097 29.187V28.2081C54.2208 29.0183 53.543 29.5021 52.5431 29.5021C50.8431 29.5021 50.1876 28.0844 50.1876 26.0816C50.1876 24.0788 50.8542 22.661 52.5431 22.661ZM53.7875 27.6906C54.3652 27.6906 54.6097 27.4318 54.6097 27.0942V24.9789C54.6097 24.6301 54.2875 24.4613 53.7875 24.4613C53.0653 24.4613 52.7653 24.9676 52.7653 26.0816C52.7653 27.1955 53.0542 27.7018 53.7875 27.7018" fill="#00995D"/>
<path d="M15.0774 10.2954L14.7441 11.7581C14.133 11.6006 13.5219 11.488 12.9552 11.488C12.133 11.488 11.6775 11.7693 11.6775 12.2082C11.6775 12.647 12.1108 12.8157 12.6886 13.007C12.7644 13.0347 12.8404 13.062 12.9163 13.0892C14.1075 13.5171 15.2663 13.9333 15.2663 15.4037C15.2663 16.8326 14.1774 17.7328 12.3664 17.7328C11.5664 17.7328 10.5664 17.5302 9.88864 17.2489L10.2886 15.775C10.9331 16.045 11.7775 16.1913 12.3219 16.1913C13.0663 16.1913 13.4552 15.8987 13.4552 15.4937C13.4552 15.0596 13.0645 14.9262 12.4075 14.7021C12.2812 14.6589 12.1448 14.6124 11.9997 14.5598C10.7664 14.121 9.9553 13.5696 9.9553 12.3207C9.9553 10.948 11.0219 9.9353 12.9774 9.9353C13.6663 9.9353 14.4441 10.0591 15.0996 10.2729L15.0774 10.2954Z" fill="#002D74"/>
<path d="M18.2106 11.6456V13.0633H20.7328V14.6048H18.2106V16.045H21.4217V17.5865H16.4996V10.1041H21.4217V11.6456H18.2106Z" fill="#002D74"/>
<path d="M28.777 17.2264V13.4684H25.9993V15.0098H27.1771V16.1013C26.8548 16.1688 26.5549 16.2025 26.2215 16.2025C24.8438 16.2025 23.9549 15.4487 23.9549 13.9972C23.9549 12.4332 24.9549 11.533 26.5771 11.533C27.0882 11.533 27.577 11.6343 28.2215 11.8031L28.5992 10.2954C27.8326 10.0478 27.1215 9.9578 26.3437 9.9578C23.8105 9.9578 22.1994 11.6568 22.1994 14.0309C22.1994 16.4051 23.7216 17.744 26.1104 17.744C26.9993 17.744 27.9548 17.5527 28.777 17.2264Z" fill="#002D74"/>
<path d="M36.199 14.7623C36.199 16.6076 35.1213 17.744 33.1213 17.744C31.1214 17.744 30.0214 16.5963 30.0214 14.7623V10.1153H31.7214V14.6048C31.7214 15.5499 32.2436 16.2138 33.1102 16.2138C33.9769 16.2138 34.4991 15.5499 34.4991 14.6048V10.1153H36.199V14.7623Z" fill="#002D74"/>
<path fill-rule="evenodd" clip-rule="evenodd" d="M43.4322 17.5865V17.4515L43.4211 17.4627L41.9989 14.7735C42.7878 14.346 43.2767 13.5696 43.2767 12.5232C43.2767 11.038 42.2989 10.1041 40.7767 10.1041H37.6435V17.5865H39.3879V15.0998H40.2878L41.5545 17.5865H43.4322ZM40.4212 13.5583H39.3879V11.6118H40.4545C41.1323 11.6118 41.51 11.9494 41.51 12.5795C41.51 13.2096 41.0878 13.5583 40.4212 13.5583Z" fill="#002D74"/>
<path fill-rule="evenodd" clip-rule="evenodd" d="M44.1544 13.8847C44.1544 11.5218 45.6099 9.9578 47.8432 9.9578C50.0765 9.9578 51.4098 11.3868 51.4098 13.8059C51.4098 16.225 49.9542 17.744 47.721 17.744C45.4877 17.744 44.1544 16.2925 44.1544 13.8847ZM49.6654 13.8397C49.6654 12.4107 48.9209 11.4993 47.7654 11.4993C46.6099 11.4993 45.8988 12.4107 45.8988 13.8509C45.8988 15.2911 46.6432 16.2025 47.7654 16.2025C48.8876 16.2025 49.6654 15.2799 49.6654 13.8397Z" fill="#002D74"/>
<path d="M57.1763 11.7581L57.5096 10.2954L57.5318 10.2729C56.8763 10.0591 56.0985 9.9353 55.4096 9.9353C53.4541 9.9353 52.3875 10.948 52.3875 12.3207C52.3875 13.5696 53.1986 14.121 54.4319 14.5598C54.5771 14.6124 54.7133 14.6589 54.8397 14.7021C55.4967 14.9263 55.8874 15.0596 55.8874 15.4937C55.8874 15.8987 55.4985 16.1913 54.7541 16.1913C54.2097 16.1913 53.3653 16.045 52.7208 15.775L52.3208 17.2489C52.9986 17.5302 53.9986 17.7328 54.7985 17.7328C56.6096 17.7328 57.6985 16.8326 57.6985 15.4037C57.6985 13.9333 56.5397 13.5171 55.3485 13.0892C55.2726 13.062 55.1966 13.0347 55.1208 13.007C54.543 12.8157 54.1097 12.647 54.1097 12.2082C54.1097 11.7693 54.5652 11.488 55.3874 11.488C55.9541 11.488 56.5652 11.6006 57.1763 11.7581Z" fill="#002D74"/>
</svg>
