<svg width="14" height="14" viewBox="0 0 14 14" fill="none" xmlns="http://www.w3.org/2000/svg">
<path d="M1.58001 5.25L0 8.74651H1.89149L2.12598 8.18902H2.66198L2.89647 8.74651H4.97847V8.32102L5.16399 8.74651H6.24097L6.42649 8.31203V8.74651H10.7565L11.283 8.2035L11.776 8.74651L14 8.75101L12.415 7.00802L14 5.25H11.8105L11.298 5.78298L10.8205 5.25H6.11001L5.70552 6.15248L5.29155 5.25H3.404V5.66102L3.19402 5.25H1.58001ZM1.946 5.74651H2.86801L3.91603 8.11751V5.74651H4.92605L5.73552 7.44651L6.48154 5.74651H7.48652V8.25549H6.87501L6.87002 6.28947L5.97851 8.25549H5.43149L4.53499 6.28947V8.25549H3.27699L3.0385 7.69301H1.75001L1.51201 8.25499H0.837989L1.946 5.74651ZM8.04598 5.74651H10.5325L11.293 6.56799L12.078 5.74651H12.8385L11.683 7.00752L12.8385 8.25401H12.0435L11.283 7.42298L10.494 8.25401H8.04598V5.74651ZM2.39453 6.17102L1.97002 7.17303H2.81854L2.39453 6.17102ZM8.66001 6.266V6.72401H10.0165V7.2345H8.66001V7.73452H10.1815L10.8885 6.99804L10.2115 6.26556H8.66001V6.266Z" fill="#26A6D1"/>
</svg>
