<svg width="14" height="14" viewBox="0 0 14 14" fill="none" xmlns="http://www.w3.org/2000/svg">
<path d="M4.38675 7.66523C4.58353 7.84483 4.79207 8.0351 5.00368 8.22809C4.82643 8.43011 4.62639 8.59072 4.40031 8.71968C4.165 8.85407 3.91088 8.94142 3.64591 8.98646C3.03006 9.09154 2.44333 9.00618 1.92388 8.64336C1.45996 8.31942 1.15538 7.87739 1.04125 7.31489C1.03076 7.26316 0.998747 7.25484 0.950817 7.2552C0.668122 7.25737 0.385246 7.25629 0.102371 7.25629H0V6.44184C0.183399 6.44184 0.363 6.44184 0.542601 6.44184C0.680964 6.44184 0.819508 6.43985 0.95769 6.44293C1.00906 6.44401 1.03148 6.42575 1.04234 6.37637C1.11034 6.06673 1.23912 5.78638 1.43192 5.53263C1.6146 5.29225 1.83363 5.09837 2.09408 4.94698C2.31889 4.81639 2.56162 4.73102 2.81465 4.69449C3.22811 4.63462 3.63633 4.66881 4.02917 4.82924C4.50467 5.02349 4.84687 5.35827 5.06301 5.81876C5.18238 6.07324 5.25744 6.344 5.26829 6.62868C5.27299 6.75402 5.2833 6.87918 5.28475 7.00452C5.28565 7.07253 5.27697 7.14126 5.26522 7.20818C5.26196 7.22663 5.23393 7.24652 5.21313 7.2543C5.19197 7.26226 5.16556 7.25629 5.1415 7.25629C4.10061 7.25629 3.05973 7.25629 2.01884 7.25629C1.99189 7.25629 1.96494 7.25629 1.93093 7.25629C1.97235 7.43625 2.04995 7.59035 2.15937 7.73161C2.36212 7.9935 2.63487 8.14018 2.95374 8.18884C3.30462 8.24219 3.6461 8.18757 3.9514 7.99784C4.10405 7.90289 4.23916 7.77954 4.38711 7.66523H4.38675ZM4.36938 6.43895C4.30771 5.94247 3.83546 5.39915 2.98738 5.48452C2.45509 5.53805 2.00835 5.97304 1.93509 6.43895H4.36938Z" fill="#153833"/>
<path d="M12.97 6.44371H14V7.25254H12.9684C12.8432 7.85628 12.526 8.32798 12.017 8.66457C11.6039 8.93768 11.1413 9.05922 10.6511 9.02233C9.24035 8.91616 8.55016 7.78158 8.57512 6.81955C8.60568 5.63975 9.45829 4.83218 10.4509 4.69255C11.6974 4.51711 12.7258 5.2943 12.97 6.44353V6.44371ZM10.7916 8.15814C11.5625 8.15652 12.091 7.57702 12.0841 6.84776C12.0772 6.10114 11.544 5.53684 10.7944 5.52942C10.0575 5.52219 9.50947 6.06135 9.49627 6.82968C9.48361 7.56345 10.0655 8.16791 10.7916 8.15814Z" fill="#153833"/>
<path d="M8.42372 8.11925V8.99048C8.39008 8.99048 8.35824 8.99048 8.32659 8.99048C7.79105 8.99048 7.2555 8.99428 6.72013 8.9885C6.51033 8.98632 6.31264 8.93532 6.15022 8.78393C5.99793 8.64195 5.9037 8.46796 5.90135 8.26521C5.88905 7.17675 5.88634 6.08811 5.88037 4.99948C5.87983 4.90036 5.88037 4.80143 5.88037 4.6958H6.8008V8.11907H8.42372V8.11925Z" fill="#153833"/>
</svg>
