<svg width="36" height="36" viewBox="0 0 36 36" fill="none" xmlns="http://www.w3.org/2000/svg">
<path d="M16.4963 12.1519C18.4028 12.1519 19.7167 13.4658 19.7167 15.3465C19.7167 17.253 18.377 18.5669 16.4447 18.5669H14.3579V21.8904H12.8379V12.1519H16.4963ZM14.3579 17.3045H16.0841C17.398 17.3045 18.1451 16.5831 18.1451 15.3723C18.1451 14.1356 17.398 13.44 16.0841 13.44H14.3322V17.3045H14.3579ZM20.1031 19.9066C20.1031 18.67 21.0564 17.8971 22.7568 17.794L24.7148 17.691V17.1499C24.7148 16.3513 24.1737 15.8875 23.2978 15.8875C22.4476 15.8875 21.9323 16.2997 21.8035 16.9181H20.4123C20.4896 15.6299 21.5974 14.6767 23.3493 14.6767C25.0754 14.6767 26.1833 15.5784 26.1833 17.0211V21.9161H24.7921V20.7568H24.7663C24.3541 21.5555 23.4524 22.045 22.5249 22.045C21.0821 22.045 20.1031 21.169 20.1031 19.9066ZM24.7148 19.2625V18.6957L22.9629 18.7988C22.0869 18.8503 21.5974 19.2368 21.5974 19.8551C21.5974 20.4734 22.1127 20.8856 22.8856 20.8856C23.9161 20.8856 24.7148 20.19 24.7148 19.2625ZM27.4714 24.544V23.3589C27.5745 23.3846 27.8321 23.3846 27.9352 23.3846C28.605 23.3846 28.9657 23.1012 29.1976 22.3799C29.1976 22.3541 29.3264 21.9419 29.3264 21.9419L26.7501 14.8312H28.3216L30.125 20.628H30.1508L31.9542 14.8312H33.5L30.8464 22.3283C30.2281 24.0545 29.5325 24.5955 28.064 24.5955C27.9609 24.5698 27.6002 24.5698 27.4714 24.544Z" fill="#2B2C3B"/>
<path d="M8.38079 13.1047C8.74148 12.6409 8.99911 12.0226 8.92182 11.4043C8.38079 11.4301 7.73671 11.765 7.35026 12.203C7.01534 12.5894 6.70618 13.2335 6.78347 13.826C7.40179 13.9033 7.99434 13.5684 8.38079 13.1047ZM8.92182 13.9806C8.04587 13.9291 7.29873 14.4701 6.88652 14.4701C6.47431 14.4701 5.83023 14.0064 5.13462 14.0064C4.2329 14.0322 3.40848 14.5217 2.94474 15.3461C2.01726 16.9692 2.68711 19.3651 3.61459 20.6791C4.05256 21.3232 4.59359 22.0445 5.2892 22.0188C5.95904 21.993 6.21668 21.5808 7.01534 21.5808C7.814 21.5808 8.04587 22.0188 8.76724 21.993C9.48861 21.9672 9.95235 21.3489 10.3903 20.6791C10.9056 19.9319 11.1117 19.2106 11.1117 19.1848C11.0859 19.159 9.69472 18.6438 9.69472 17.0465C9.66896 15.7068 10.7768 15.0627 10.8283 15.0369C10.2357 14.1094 9.25674 14.0064 8.92182 13.9806Z" fill="#2B2C3B"/>
</svg>
