<svg width="36" height="36" viewBox="0 0 36 36" fill="none" xmlns="http://www.w3.org/2000/svg">
<path d="M25.5614 9.25H10.4387C5.7128 9.25 1.84619 13.1875 1.84619 18C1.84619 22.8125 5.7128 26.75 10.4387 26.75H25.5614C30.2873 26.75 34.1539 22.8125 34.1539 18C34.1539 13.1875 30.2873 9.25 25.5614 9.25Z" fill="white"/>
<path d="M25.5614 9.95875C26.6226 9.95875 27.6537 10.1731 28.6246 10.5931C29.5655 11 30.4076 11.5819 31.1379 12.3212C31.864 13.0606 32.4354 13.9225 32.8349 14.8806C33.2474 15.8694 33.4579 16.9194 33.4579 18C33.4579 19.0806 33.2474 20.1306 32.8349 21.1194C32.4354 22.0775 31.864 22.935 31.1379 23.6787C30.4119 24.4181 29.5655 25 28.6246 25.4069C27.6537 25.8269 26.6226 26.0412 25.5614 26.0412H10.4387C9.37749 26.0412 8.3464 25.8269 7.37545 25.4069C6.43457 25 5.59251 24.4181 4.86215 23.6787C4.13609 22.9394 3.56469 22.0775 3.16514 21.1194C2.7527 20.1306 2.54218 19.0806 2.54218 18C2.54218 16.9194 2.7527 15.8694 3.16514 14.8806C3.56469 13.9225 4.13609 13.065 4.86215 12.3212C5.58821 11.5819 6.43457 11 7.37545 10.5931C8.3464 10.1731 9.37749 9.95875 10.4387 9.95875H25.5614ZM25.5614 9.25H10.4387C5.7128 9.25 1.84619 13.1875 1.84619 18C1.84619 22.8125 5.7128 26.75 10.4387 26.75H25.5614C30.2873 26.75 34.1539 22.8125 34.1539 18C34.1539 13.1875 30.2873 9.25 25.5614 9.25Z" fill="#6B6C82"/>
<path d="M17.2531 18.6213V21.2682H16.4282V14.7319H18.615C19.1692 14.7319 19.6418 14.9201 20.0285 15.2963C20.4237 15.6726 20.6213 16.1319 20.6213 16.6744C20.6213 17.2301 20.4237 17.6894 20.0285 18.0613C19.6461 18.4332 19.1735 18.6169 18.615 18.6169H17.2531V18.6213ZM17.2531 15.5369V17.8163H18.6322C18.9587 17.8163 19.2337 17.7026 19.4485 17.4794C19.6676 17.2563 19.7793 16.9851 19.7793 16.6788C19.7793 16.3769 19.6676 16.1101 19.4485 15.8869C19.2337 15.6551 18.963 15.5413 18.6322 15.5413H17.2531V15.5369Z" fill="#6B6C82"/>
<path d="M22.7775 16.6479C23.3875 16.6479 23.8687 16.8142 24.221 17.1467C24.5733 17.4792 24.7494 17.9342 24.7494 18.5117V21.2679H23.9632V20.6467H23.9288C23.5894 21.1586 23.134 21.4123 22.5669 21.4123C22.0815 21.4123 21.6776 21.2679 21.3511 20.9748C21.0246 20.6817 20.8613 20.3186 20.8613 19.8811C20.8613 19.4173 21.0332 19.0498 21.3769 18.7786C21.7206 18.5029 22.1803 18.3673 22.7517 18.3673C23.2414 18.3673 23.6453 18.4592 23.9589 18.6429V18.4504C23.9589 18.1573 23.8472 17.9123 23.6195 17.7067C23.3918 17.5011 23.1254 17.4004 22.8204 17.4004C22.3607 17.4004 21.9955 17.5973 21.7292 17.9954L21.0031 17.5317C21.4027 16.9411 21.9955 16.6479 22.7775 16.6479ZM21.712 19.8942C21.712 20.1129 21.8022 20.2967 21.9869 20.4411C22.1674 20.5854 22.3822 20.6598 22.6271 20.6598C22.9751 20.6598 23.2844 20.5286 23.5551 20.2661C23.8257 20.0036 23.9632 19.6973 23.9632 19.3429C23.7054 19.1373 23.3488 19.0323 22.8892 19.0323C22.554 19.0323 22.2748 19.1154 22.0514 19.2773C21.8237 19.4479 21.712 19.6536 21.712 19.8942Z" fill="#6B6C82"/>
<path d="M29.235 16.7925L26.4854 23.2325H25.6347L26.6573 20.9794L24.8442 16.7925H25.7422L27.0482 20.0037H27.0654L28.3371 16.7925H29.235Z" fill="#6B6C82"/>
<path d="M13.9717 18.0877C13.9717 17.8139 13.9476 17.5518 13.9029 17.2998H10.4453V18.7436L12.4366 18.744C12.3558 19.2244 12.0959 19.6339 11.6977 19.9069V20.8436H12.883C13.5751 20.1912 13.9717 19.227 13.9717 18.0877Z" fill="#4251F4"/>
<path d="M11.6983 19.9066C11.3684 20.1332 10.9435 20.2658 10.4464 20.2658C9.48622 20.2658 8.67165 19.6069 8.37994 18.7188H7.15723V19.6848C7.763 20.9089 9.00804 21.7489 10.4464 21.7489C11.4406 21.7489 12.2758 21.4159 12.8837 20.8428L11.6983 19.9066Z" fill="#34A853"/>
<path d="M8.26458 18.0024C8.26458 17.753 8.30539 17.512 8.37972 17.2853V16.3193H7.15701C6.90654 16.8255 6.76562 17.3969 6.76562 18.0024C6.76562 18.6079 6.90697 19.1793 7.15701 19.6855L8.37972 18.7195C8.30539 18.4928 8.26458 18.2518 8.26458 18.0024Z" fill="#FABB05"/>
<path d="M10.4464 15.738C10.989 15.738 11.4749 15.9283 11.8586 16.3002L12.909 15.2314C12.271 14.6263 11.4393 14.2549 10.4464 14.2549C9.00847 14.2549 7.763 15.0949 7.15723 16.319L8.37994 17.285C8.67165 16.3969 9.48622 15.738 10.4464 15.738Z" fill="#E94235"/>
</svg>
