<svg width="36" height="36" viewBox="0 0 36 36" fill="none" xmlns="http://www.w3.org/2000/svg">
<path d="M23.5618 26.1454C27.7505 26.1454 31.1461 22.726 31.1461 18.508C31.1461 14.29 27.7505 10.8706 23.5618 10.8706C19.3731 10.8706 15.9775 14.29 15.9775 18.508C15.9775 22.726 19.3731 26.1454 23.5618 26.1454Z" fill="#2B2C3B"/>
<path fill-rule="evenodd" clip-rule="evenodd" d="M26.1276 15.5496C26.2497 15.4312 26.4432 15.4321 26.5642 15.5515L28.7568 18.2331C28.9098 18.3841 28.9082 18.6324 28.7535 18.7815L26.6026 21.4845C26.5496 21.5355 26.4791 21.564 26.4057 21.564H24.5997C24.3451 21.564 24.2185 21.2537 24.3997 21.0738L26.6036 18.5091L24.5997 16.0269H23.7958L25.7123 18.2333C25.8687 18.3836 25.8688 18.6347 25.7126 18.7852L23.1945 21.4845C23.1415 21.5355 23.071 21.564 22.9976 21.564H20.1484C19.5202 21.564 19.011 21.0514 19.0108 20.4188C19.0106 19.1458 19.0108 17.8727 19.0109 16.5997C19.011 15.967 19.5203 15.4541 20.1486 15.4541H21.2803C21.4376 15.4541 21.565 15.5823 21.565 15.7405C21.565 15.8987 21.4376 16.0269 21.2803 16.0269H20.3389C19.92 16.0269 19.5804 16.3688 19.5804 16.7907C19.5804 17.9363 19.5804 19.0818 19.5804 20.2275C19.5804 20.6493 19.92 20.9912 20.3389 20.9912H22.7869L25.0851 18.5091L22.8812 15.9443C22.7 15.7644 22.8266 15.4541 23.0812 15.4541H24.8414C24.9148 15.4541 24.9853 15.4826 25.0383 15.5337L27.2311 18.2329C27.3874 18.3834 27.3872 18.6346 27.2309 18.7849L25.3143 20.9912H26.1686L28.1221 18.5091L26.1276 16.0269C26.0026 15.9025 26.001 15.6723 26.1276 15.5496Z" fill="white"/>
<path fill-rule="evenodd" clip-rule="evenodd" d="M6.87696 9.8527L20.5635 9.85254C19.5655 10.2031 18.6468 10.7238 17.8414 11.38L7.38258 11.3802C6.8241 11.3802 6.37135 11.8361 6.37135 12.3985V21.5469C6.37135 22.1184 6.83138 22.5816 7.39888 22.5816H15.4073C15.6747 23.1234 15.9937 23.6347 16.3579 24.1091H6.99593C5.81327 24.1091 4.85449 23.1436 4.85449 21.9527V11.8893C4.85449 10.7645 5.75999 9.8527 6.87696 9.8527ZM11.4275 17.4899C11.986 17.4899 12.4388 17.034 12.4388 16.4716V14.435C12.4388 13.8726 11.986 13.4167 11.4275 13.4167H9.40505C8.84657 13.4167 8.39382 13.8726 8.39382 14.435V16.4716C8.39382 17.034 8.84657 17.4899 9.40505 17.4899H11.4275Z" fill="#2B2C3B"/>
</svg>
