<svg width="14" height="14" viewBox="0 0 14 14" fill="none" xmlns="http://www.w3.org/2000/svg">
<path d="M4.94531 8.90662L5.65337 4.75159H6.78588L6.07732 8.90662H4.94531Z" fill="#0E4595"/>
<path d="M10.1691 4.84114C9.94471 4.75696 9.59312 4.66663 9.15404 4.66663C8.03496 4.66663 7.24672 5.23017 7.23999 6.03783C7.23369 6.63487 7.80274 6.96793 8.23233 7.16667C8.67317 7.37037 8.82137 7.50024 8.81924 7.68208C8.81642 7.96061 8.46721 8.08781 8.14166 8.08781C7.68841 8.08781 7.44759 8.02484 7.07565 7.86975L6.92968 7.80369L6.77075 8.73383C7.03528 8.84984 7.5244 8.9503 8.03231 8.95552C9.22281 8.95552 9.99565 8.39841 10.0044 7.53592C10.0087 7.06325 9.70695 6.70357 9.05354 6.40702C8.6577 6.21481 8.41527 6.08654 8.41784 5.89191C8.41784 5.71921 8.62304 5.53453 9.06645 5.53453C9.43676 5.52878 9.70506 5.60954 9.91408 5.69372L10.0156 5.74166L10.1691 4.84114Z" fill="#0E4595"/>
<path d="M13.0834 4.75146H12.2083C11.9372 4.75146 11.7343 4.82545 11.6153 5.09603L9.93335 8.9038H11.1226C11.1226 8.9038 11.317 8.39184 11.361 8.27941C11.491 8.27941 12.6463 8.28119 12.8114 8.28119C12.8453 8.42667 12.9492 8.9038 12.9492 8.9038H14.0001L13.0834 4.75146ZM11.695 7.43445C11.7887 7.19506 12.1462 6.27294 12.1462 6.27294C12.1395 6.284 12.2392 6.03238 12.2963 5.87638L12.3729 6.23461C12.3729 6.23461 12.5898 7.22643 12.6351 7.43439H11.695V7.43445Z" fill="#0E4595"/>
<path d="M0.0144677 4.75159L0 4.83802C0.447694 4.94639 0.847549 5.10325 1.19763 5.29837L2.20253 8.89996L3.40078 8.89863L5.18374 4.75159H3.984L2.87526 7.58502L2.75715 7.00917C2.75162 6.99138 2.7456 6.97355 2.73945 6.95569L2.354 5.10238C2.28547 4.83927 2.08665 4.76076 1.84067 4.75159H0.0144677Z" fill="#0E4595"/>
</svg>
