<svg width="48" height="48" viewBox="0 0 48 48" fill="none" xmlns="http://www.w3.org/2000/svg">
<path d="M47.7324 27.8346L33.244 8.68871C33.0987 8.50826 32.899 8.39999 32.663 8.39999H15.197C14.9791 8.39999 14.7613 8.50826 14.616 8.68871L0.145772 27.8346C-0.217346 28.3038 0.145781 28.9714 0.708614 28.9714H8.20699C8.80614 28.9714 9.13294 29.6391 8.78798 30.1083L2.76022 38.1203C2.41526 38.5895 2.76022 39.2571 3.34121 39.2571H14.5071C14.725 39.2571 14.9428 39.1489 15.0881 38.9684L21.7694 30.0902C22.1144 29.6211 21.7694 28.9534 21.1885 28.9534H18.8463H17.7207C17.0852 28.9534 16.7221 28.2316 17.1034 27.7083L23.0404 19.9128C23.4216 19.4075 23.0585 18.6677 22.4231 18.6677H17.7388C17.1034 18.6677 16.7403 17.9459 17.1215 17.4226L23.3672 9.21202C23.6758 8.79698 24.2931 8.79698 24.6199 9.21202L30.8111 17.4226C31.1924 17.9278 30.8111 18.6677 30.1938 18.6677H25.564C24.9286 18.6677 24.5473 19.3895 24.9467 19.9128L30.8292 27.7083C31.2105 28.2135 30.8292 28.9534 30.2119 28.9534H29.0863H26.7986C26.2176 28.9534 25.8727 29.6211 26.2358 30.0902L32.9172 38.9684C33.0624 39.1489 33.2621 39.2571 33.4981 39.2571H44.664C45.245 39.2571 45.59 38.5895 45.2268 38.1203L39.1991 30.1083C38.8541 29.6391 39.1991 28.9714 39.7801 28.9714H47.2785C47.8776 28.9714 48.2044 28.3038 47.8595 27.8346" fill="#002D74"></path>
</svg>